PathFileType	4	(X/Y/Z)	/Users/itak/Documents/Research/Walk-IL/dataset/trc/00272_00010.trc
DataRate	CameraRate	NumFrames	NumMarkers	Units	OrigDataRate	OrigDataStartFrame	OrigNumFrames
100.000000	100.000000	4	53	mm	100.000000	80	640
Frame#	Time	RPSI			LPSI			L3			STRN			T10			C7			CLAV			RBAK			LBAK			LSHO			LUPA			LAEL			LAOL			LWTS			LWPS			LFRA			LIFD			LHPS			LHTS			RSHO			RUPA			RAEL			RAOL			RWTS			RWPS			RFRA			RIFD			RHTS			RHPS			RBHD			LFHD			RFHD			LBHD			LHIP			RHIP			RASI			LASI			LKNE			LTHI			LANK			LTIP			LTOE			LMT1			LMT5			LHEE			RKNE			RTHI			RTIP			RTOE			RMT1			RMT5			RHEE			RANK			
		X1	Y1	Z1	X2	Y2	Z2	X3	Y3	Z3	X4	Y4	Z4	X5	Y5	Z5	X6	Y6	Z6	X7	Y7	Z7	X8	Y8	Z8	X9	Y9	Z9	X10	Y10	Z10	X11	Y11	Z11	X12	Y12	Z12	X13	Y13	Z13	X14	Y14	Z14	X15	Y15	Z15	X16	Y16	Z16	X17	Y17	Z17	X18	Y18	Z18	X19	Y19	Z19	X20	Y20	Z20	X21	Y21	Z21	X22	Y22	Z22	X23	Y23	Z23	X24	Y24	Z24	X25	Y25	Z25	X26	Y26	Z26	X27	Y27	Z27	X28	Y28	Z28	X29	Y29	Z29	X30	Y30	Z30	X31	Y31	Z31	X32	Y32	Z32	X33	Y33	Z33	X34	Y34	Z34	X35	Y35	Z35	X36	Y36	Z36	X37	Y37	Z37	X38	Y38	Z38	X39	Y39	Z39	X40	Y40	Z40	X41	Y41	Z41	X42	Y42	Z42	X43	Y43	Z43	X44	Y44	Z44	X45	Y45	Z45	X46	Y46	Z46	X47	Y47	Z47	X48	Y48	Z48	X49	Y49	Z49	X50	Y50	Z50	X51	Y51	Z51	X52	Y52	Z52	X53	Y53	Z53	

81	0.8	790.8383178710938	992.5401611328125	79.59303283691406	792.8414916992188	983.8156127929688	-93.56311798095703	809.2814331054688	1063.728393554688	-11.84046363830566	1056.660278320312	1254.339721679688	-14.96719837188721	796.4882202148438	1175.19384765625	-13.2868185043335	821.5802001953125	1420.619140625	-30.48003578186035	988.525146484375	1353.054077148438	-18.47127723693848	779.8055419921875	1280.967529296875	48.90893936157227	812.5868530273438	1384.89013671875	-135.3304595947266	904.8211059570312	1398.248291015625	-183.2430114746094	893.2722778320312	1278.761352539062	-261.1781311035156	920.3836669921875	1075.100830078125	-274.5473327636719	851.8601684570312	1057.831787109375	-224.017333984375	1004.675659179688	857.0444946289062	-216.4624176025391	978.754150390625	844.2745971679688	-282.1217346191406	941.5800170898438	972.2021484375	-280.337890625	1013.0546875	669.8561401367188	-213.9027709960938	985.1085205078125	756.0625	-278.2640991210938	1032.880493164062	758.499755859375	-233.4441223144531	889.7861938476562	1404.849853515625	132.4038848876953	889.3124389648438	1346.253784179688	200.7623443603516	913.0989990234375	1079.29931640625	250.5306396484375	864.9544067382812	1068.223266601562	166.4136657714844	1018.507934570312	863.0261840820312	180.7900238037109	990.1487426757812	856.2632446289062	260.7357482910156	944.9451293945312	1014.116271972656	257.2685852050781	1034.482543945312	678.1846923828125	176.9500274658203	1056.138549804688	749.2380981445312	190.5859375	1018.544555664062	745.6294555664062	249.6688842773438	839.345947265625	1584.107666015625	46.91930770874023	1017.060119628906	1629.204833984375	-58.92890167236328	1011.033264160156	1622.064331054688	33.51569366455078	850.2920532226562	1584.893676757812	-98.82131958007812	864.3906860351562	939.938720703125	-188.9090728759766	894.2156982421875	948.6156616210938	183.1680755615234	1013.64501953125	962.2739868164062	113.1947708129883	1002.132141113281	958.2081909179688	-137.5052032470703	953.2723999023438	481.4430236816406	-171.5005645751953	939.2611694335938	622.152099609375	-187.3073577880859	854.949462890625	37.91727066040039	-158.7012939453125	896.376220703125	256.298583984375	-174.5512237548828	1064.271118164062	29.06856346130371	-106.7438659667969	994.260498046875	21.49699211120605	-65.31247711181641	978.9664916992188	36.79941558837891	-175.0260162353516	810.2244262695312	30.00377082824707	-98.92141723632812	958.4852294921875	478.8404846191406	166.0790710449219	967.5643920898438	742.413330078125	187.1043395996094	963.809326171875	353.396728515625	158.6822509765625	1070.534057617188	36.54384994506836	105.7470855712891	1012.584655761719	32.06982803344727	67.08084869384766	980.6652221679688	27.7484245300293	180.5294494628906	821.95263671875	31.7327995300293	111.900260925293	875.559814453125	36.69828796386719	160.6171875	
82	0.8100000000000001	790.8108520507812	992.5911865234375	79.62007141113281	792.8279418945312	983.825439453125	-93.53998565673828	809.2269287109375	1063.766235351562	-11.85452365875244	1056.650756835938	1254.373901367188	-15.0855541229248	796.4628295898438	1175.2568359375	-13.32697677612305	821.5891723632812	1420.614990234375	-30.5713939666748	988.5506591796875	1353.106567382812	-18.58138847351074	779.802734375	1281.014282226562	48.87873840332031	812.5687255859375	1384.904052734375	-135.3862609863281	904.7828979492188	1398.27392578125	-183.3441772460938	893.267578125	1278.806518554688	-261.3087768554688	920.3389892578125	1075.131103515625	-274.7012329101562	851.7764892578125	1057.863891601562	-224.1673889160156	1004.604431152344	857.0596313476562	-216.6295166015625	978.601318359375	844.2738037109375	-282.2868347167969	941.5286254882812	972.2456665039062	-280.50048828125	1012.973693847656	669.9327392578125	-214.1654052734375	984.9901123046875	756.0470581054688	-278.4173583984375	1032.749389648438	758.4315185546875	-233.5251007080078	889.8506469726562	1404.934936523438	132.3114166259766	889.4030151367188	1346.347045898438	200.6881103515625	913.3731079101562	1079.368774414062	250.4529266357422	865.013427734375	1068.33056640625	166.3621673583984	1018.761108398438	863.1991577148438	180.4637145996094	990.489501953125	856.3682861328125	260.4378051757812	945.212158203125	1014.200744628906	257.1121520996094	1034.895141601562	678.3845825195312	176.5323638916016	1056.5361328125	749.447998046875	190.1741027832031	1018.970153808594	745.7704467773438	249.2843933105469	839.3394775390625	1584.132446289062	46.84790420532227	1016.965270996094	1629.224487304688	-59.14254760742188	1011.019348144531	1622.095703125	33.28423309326172	850.1642456054688	1584.897583007812	-98.89249420166016	864.5082397460938	939.9722290039062	-188.8070373535156	894.2070922851562	948.6931762695312	183.1583709716797	1013.650146484375	962.3145751953125	113.166259765625	1002.056030273438	958.197265625	-137.5382080078125	953.185791015625	481.445068359375	-171.4898223876953	938.9478759765625	622.2374877929688	-187.3182373046875	854.9462890625	37.90731430053711	-158.6993865966797	896.3330688476562	256.3042297363281	-174.5564575195312	1064.2626953125	29.06525421142578	-106.7457885742188	994.2562255859375	21.4931640625	-65.31146240234375	978.9597778320312	36.79941177368164	-175.0281677246094	810.2197265625	30.00496864318848	-98.92261505126953	958.3170166015625	478.842529296875	166.0448913574219	967.377197265625	742.3355712890625	187.2109222412109	963.6736450195312	353.4360961914062	158.6632232666016	1070.514526367188	36.58160781860352	105.7486114501953	1012.580505371094	32.08481597900391	67.07822418212891	980.6666259765625	27.74036979675293	180.5421600341797	821.93603515625	31.72117042541504	111.9017562866211	875.5292358398438	36.69109344482422	160.6034545898438	
83	0.8200000000000001	790.7828369140625	992.6375732421875	79.64127349853516	792.8201293945312	983.837158203125	-93.51828002929688	809.17919921875	1063.799926757812	-11.86860656738281	1056.646240234375	1254.403686523438	-15.20726108551025	796.4534912109375	1175.309448242188	-13.3604154586792	821.610107421875	1420.6015625	-30.66005325317383	988.5777587890625	1353.154907226562	-18.69816780090332	779.8118286132812	1281.061157226562	48.84941864013672	812.55615234375	1384.9140625	-135.4417266845703	904.7530517578125	1398.290893554688	-183.4482879638672	893.26513671875	1278.841064453125	-261.4411926269531	920.2718505859375	1075.148071289062	-274.85009765625	851.6817626953125	1057.885131835938	-224.3085784912109	1004.533996582031	857.052001953125	-216.7920532226562	978.4407958984375	844.2550048828125	-282.4423522949219	941.4546508789062	972.2806396484375	-280.6674499511719	1012.890930175781	669.9685668945312	-214.4113006591797	984.8554077148438	756.0054931640625	-278.5735778808594	1032.639892578125	758.3687744140625	-233.5934143066406	889.9193115234375	1405.012939453125	132.2210693359375	889.4979858398438	1346.436767578125	200.6155395507812	913.62548828125	1079.432373046875	250.3705596923828	865.0746459960938	1068.433715820312	166.3173980712891	1019.000366210938	863.355712890625	180.1495666503906	990.8147583007812	856.4658813476562	260.154541015625	945.4527587890625	1014.276916503906	256.9549865722656	1035.279541015625	678.5701293945312	176.1429595947266	1056.891357421875	749.6370239257812	189.7771148681641	1019.366943359375	745.899658203125	248.9212951660156	839.3341674804688	1584.151733398438	46.77704620361328	1016.876342773438	1629.245971679688	-59.35877227783203	1011.017700195312	1622.127319335938	33.05641937255859	850.054931640625	1584.892211914062	-98.95661926269531	864.5695190429688	940.0042114257812	-188.7351684570312	894.2064208984375	948.7623901367188	183.1492919921875	1013.652770996094	962.3531494140625	113.139892578125	1001.983703613281	958.1870727539062	-137.5707092285156	953.1075439453125	481.447509765625	-171.478271484375	938.8311767578125	622.2798461914062	-187.2987518310547	854.9432373046875	37.89499664306641	-158.6983489990234	896.2939453125	256.3072814941406	-174.5618591308594	1064.253662109375	29.06234359741211	-106.7461776733398	994.2532348632812	21.49093818664551	-65.31073760986328	978.9536743164062	36.80089950561523	-175.0303344726562	810.215576171875	30.00565528869629	-98.92442321777344	958.1820068359375	478.84814453125	166.016845703125	967.2493286132812	742.2921752929688	187.2770233154297	963.5598754882812	353.4654235839844	158.6439361572266	1070.49609375	36.61671447753906	105.7497253417969	1012.57666015625	32.10046768188477	67.07366943359375	980.6683349609375	27.73122215270996	180.5550689697266	821.9264526367188	31.7146167755127	111.906623840332	875.4960327148438	36.68648910522461	160.5877990722656	
84	0.8300000000000001	790.7523193359375	992.6790161132812	79.65707397460938	792.8009033203125	983.8501586914062	-93.50262451171875	809.1348876953125	1063.83056640625	-11.88317680358887	1056.646728515625	1254.429321289062	-15.33134174346924	796.4542236328125	1175.35400390625	-13.3887243270874	821.6397094726562	1420.582763671875	-30.7445182800293	988.6074829101562	1353.198974609375	-18.82075119018555	779.833740234375	1281.109497070312	48.82019424438477	812.5494384765625	1384.921997070312	-135.4976348876953	904.7315063476562	1398.299926757812	-183.554931640625	893.263916015625	1278.865234375	-261.5733032226562	920.1830444335938	1075.152221679688	-274.9922180175781	851.5763549804688	1057.896240234375	-224.4387817382812	1004.463195800781	857.0258178710938	-216.9523773193359	978.2794799804688	844.2233276367188	-282.5865478515625	941.3570556640625	972.305908203125	-280.8344421386719	1012.806640625	669.967529296875	-214.6349945068359	984.7068481445312	755.9464721679688	-278.7346496582031	1032.550048828125	758.31689453125	-233.6651916503906	889.9922485351562	1405.083618164062	132.1329040527344	889.5997924804688	1346.521362304688	200.5460052490234	913.8504638671875	1079.491333007812	250.2822418212891	865.1392211914062	1068.531982421875	166.280517578125	1019.221862792969	863.4960327148438	179.8475646972656	991.1179809570312	856.55615234375	259.8846130371094	945.6699829101562	1014.344970703125	256.7984313964844	1035.64013671875	678.7417602539062	175.7833404541016	1057.199340820312	749.8037719726562	189.3949127197266	1019.740783691406	746.0186767578125	248.5830078125	839.3275756835938	1584.163208007812	46.70515823364258	1016.794799804688	1629.270263671875	-59.57578277587891	1011.025207519531	1622.159912109375	32.83547973632812	849.963134765625	1584.87841796875	-99.0152587890625	864.5809936523438	940.033203125	-188.691650390625	894.2158813476562	948.8215942382812	183.1424865722656	1013.653015136719	962.3890991210938	113.1151657104492	1001.914306640625	958.1782836914062	-137.6028289794922	953.0368041992188	481.4502563476562	-171.4672393798828	938.8829345703125	622.2842407226562	-187.2532653808594	854.9400024414062	37.87823486328125	-158.6973266601562	896.2578125	256.3079528808594	-174.5678253173828	1064.24462890625	29.06051445007324	-106.7447357177734	994.2518920898438	21.49128150939941	-65.31114959716797	978.9484252929688	36.80361938476562	-175.0329284667969	810.21240234375	30.00545501708984	-98.92719268798828	958.0803833007812	478.8571472167969	165.9959564208984	967.1753540039062	742.2772216796875	187.3076629638672	963.4693603515625	353.4847717285156	158.6270294189453	1070.478881835938	36.64762496948242	105.7500915527344	1012.572509765625	32.11576461791992	67.068359375	980.66943359375	27.72158050537109	180.5678558349609	821.9181518554688	31.71020317077637	111.9134063720703	875.4639282226562	36.68378448486328	160.5722045898438	
